<svg width="180" height="180" xmlns="http://www.w3.org/2000/svg">
  <rect width="180" height="180" fill="#f8f9fa" stroke="#dee2e6" stroke-width="2"/>
  <text x="90" y="85" text-anchor="middle" font-family="Arial, sans-serif" font-size="14" fill="#6c757d">QR Code</text>
  <text x="90" y="105" text-anchor="middle" font-family="Arial, sans-serif" font-size="12" fill="#6c757d">Placeholder</text>
  <!-- Simple QR-like pattern -->
  <rect x="20" y="20" width="20" height="20" fill="#000"/>
  <rect x="50" y="20" width="10" height="10" fill="#000"/>
  <rect x="70" y="20" width="20" height="20" fill="#000"/>
  <rect x="140" y="20" width="20" height="20" fill="#000"/>
  
  <rect x="20" y="50" width="10" height="10" fill="#000"/>
  <rect x="40" y="50" width="10" height="10" fill="#000"/>
  <rect x="70" y="50" width="10" height="10" fill="#000"/>
  <rect x="140" y="50" width="10" height="10" fill="#000"/>
  
  <rect x="20" y="70" width="20" height="20" fill="#000"/>
  <rect x="50" y="70" width="10" height="10" fill="#000"/>
  <rect x="70" y="70" width="20" height="20" fill="#000"/>
  <rect x="140" y="70" width="20" height="20" fill="#000"/>
  
  <rect x="20" y="140" width="20" height="20" fill="#000"/>
  <rect x="50" y="140" width="10" height="10" fill="#000"/>
  <rect x="140" y="140" width="20" height="20" fill="#000"/>
</svg> 